<svg width="20" height="20" viewBox="0 0 20 20" fill="none" xmlns="http://www.w3.org/2000/svg">
<path d="M9.99479 19.375C7.43372 19.375 7.1318 19.3615 6.13236 19.3178C5.35297 19.2922 4.58367 19.134 3.85758 18.85C2.60131 18.3618 1.60793 17.3695 1.11952 16.1149C0.846029 15.3872 0.698519 14.6184 0.683301 13.8413C0.625 12.8454 0.625 12.5189 0.625 9.98129C0.625 7.41662 0.638534 7.11722 0.683301 6.12442C0.698852 5.34839 0.846357 4.58064 1.11952 3.85396C1.6074 2.59765 2.60239 1.60447 3.8607 1.11776C4.58805 0.843524 5.35711 0.695842 6.13444 0.681138C7.12868 0.625 7.45558 0.625 9.99479 0.625C12.5767 0.625 12.8734 0.638515 13.8572 0.681138C14.6366 0.695969 15.4077 0.843635 16.1372 1.11776C17.3952 1.60502 18.39 2.59801 18.8784 3.85396C19.1565 4.59123 19.3048 5.37098 19.3167 6.15872C19.375 7.15465 19.375 7.48004 19.375 10.0166C19.375 12.5532 19.3604 12.8859 19.3167 13.8704C19.3012 14.6482 19.1533 15.4177 18.8794 16.146C18.3898 17.4016 17.3949 18.3942 16.1372 18.8822C15.4087 19.1548 14.6392 19.3021 13.8614 19.3178C12.8672 19.375 12.5413 19.375 9.99479 19.375ZM9.9594 2.27067C7.4129 2.27067 7.14846 2.28314 6.15422 2.32784C5.56078 2.33569 4.97308 2.44505 4.41664 2.65116C3.59497 2.96512 2.94478 3.61173 2.62701 4.43093C2.41902 4.99262 2.30949 5.58589 2.30323 6.18471C2.24806 7.19207 2.24806 7.45613 2.24806 9.98129C2.24806 12.4763 2.25743 12.7788 2.30323 13.7799C2.31255 14.3727 2.42202 14.9597 2.62701 15.5161C2.94525 16.3347 3.59532 16.9808 4.41664 17.2948C4.9727 17.5023 5.56064 17.6117 6.15422 17.6181C7.16199 17.6763 7.42747 17.6763 9.9594 17.6763C12.5132 17.6763 12.7776 17.6638 13.7635 17.6181C14.3574 17.6109 14.9455 17.5015 15.5022 17.2948C16.3189 16.9781 16.9648 16.3335 17.2824 15.5181C17.49 14.956 17.5995 14.3624 17.6062 13.7633H17.6176C17.6624 12.7695 17.6624 12.5044 17.6624 9.96465C17.6624 7.42494 17.651 7.15777 17.6062 6.16496C17.5969 5.57287 17.4874 4.9866 17.2824 4.43093C16.9655 3.61441 16.3195 2.96853 15.5022 2.65116C14.9456 2.44401 14.3574 2.33462 13.7635 2.32784C12.7568 2.27067 12.4934 2.27067 9.9594 2.27067ZM9.99479 14.7831C8.04795 14.7844 6.29208 13.6144 5.54608 11.8187C4.80008 10.0231 5.2109 7.95547 6.58693 6.58024C7.96296 5.205 10.0332 4.79299 11.8321 5.53636C13.631 6.27972 14.8042 8.03205 14.8046 9.97609C14.8018 12.6281 12.6507 14.778 9.99479 14.7831ZM9.99479 6.85525C8.26986 6.85525 6.87153 8.25156 6.87153 9.97401C6.87153 11.6965 8.26986 13.0928 9.99479 13.0928C11.7197 13.0928 13.1181 11.6965 13.1181 9.97401C13.1141 8.25322 11.7181 6.85925 9.99479 6.85525ZM14.992 6.11403C14.373 6.11173 13.8727 5.60939 13.8739 4.99128C13.875 4.37316 14.3772 3.87268 14.9962 3.87268C15.6152 3.87268 16.1173 4.37315 16.1185 4.99127C16.1188 5.28949 16.0001 5.57554 15.7887 5.78622C15.5774 5.99689 15.2907 6.11485 14.992 6.11403Z" fill="#111827"/>
</svg>
