<svg width="20" height="22" viewBox="0 0 20 22" fill="none" xmlns="http://www.w3.org/2000/svg">
<path d="M6.68202 2.23295C6.61949 2.19471 6.56914 2.13945 6.53689 2.07363C6.50463 2.00781 6.4918 1.93416 6.49989 1.86131C6.50799 1.78846 6.53667 1.71942 6.58259 1.66229C6.62851 1.60516 6.68975 1.56229 6.75916 1.53871C8.1645 1.05255 9.66059 0.885967 11.1385 1.0511C12.6163 1.21623 14.0387 1.70893 15.3021 2.49329C15.3491 2.52134 15.3896 2.55908 15.4209 2.60399C15.4522 2.64891 15.4736 2.69997 15.4836 2.75378C15.4936 2.80759 15.4921 2.86293 15.4791 2.9161C15.4661 2.96927 15.4419 3.01907 15.4082 3.06217C14.2871 4.48477 12.9185 5.69335 11.3681 6.62978C10.1134 4.86766 8.5204 3.37299 6.68202 2.23295ZM9.98928 7.35294C8.57757 5.43484 6.72575 3.88394 4.58967 2.83076C4.5266 2.80219 4.45738 2.78987 4.38832 2.79492C4.31927 2.79998 4.25258 2.82224 4.19434 2.85969C2.46602 4.10451 1.17386 5.86225 0.501393 7.88326C0.485482 7.93455 0.480459 7.98861 0.486647 8.04196C0.492835 8.09531 0.510098 8.14678 0.537329 8.19307C0.56456 8.23936 0.601159 8.27946 0.644782 8.31079C0.688406 8.34212 0.738092 8.36399 0.790658 8.37501C1.79825 8.59244 2.82608 8.70234 3.85687 8.70284C5.97499 8.70551 8.06806 8.24477 9.98928 7.35294ZM19.9978 9.92739C19.7512 7.69085 18.7596 5.60225 17.1823 3.99746C17.1434 3.95953 17.097 3.93004 17.0462 3.91084C16.9953 3.89163 16.9411 3.88312 16.8868 3.88583C16.8325 3.88855 16.7793 3.90243 16.7306 3.92661C16.6819 3.9508 16.6388 3.98477 16.6038 4.02639C15.3845 5.58243 13.8912 6.90258 12.1973 7.92182C12.7257 8.83866 13.1648 9.80409 13.5087 10.8048C14.8886 10.4317 16.3121 10.2436 17.7416 10.2456C18.3537 10.247 18.9654 10.2824 19.5736 10.3516C19.6308 10.3577 19.6886 10.3509 19.7429 10.3318C19.7971 10.3126 19.8464 10.2815 19.887 10.2408C19.9277 10.2002 19.9588 10.1509 19.9779 10.0967C19.9971 10.0424 20.0039 9.9846 19.9978 9.92739ZM13.9329 12.2897C14.2162 13.5068 14.3586 14.7524 14.3572 16.002C14.3565 17.1957 14.2239 18.3857 13.9619 19.5503C13.9447 19.6219 13.9484 19.6969 13.9725 19.7665C13.9966 19.8361 14.0401 19.8973 14.0979 19.943C14.1557 19.9886 14.2254 20.0167 14.2987 20.024C14.3719 20.0313 14.4458 20.0175 14.5115 19.9842C15.9746 19.2524 17.2366 18.1741 18.1878 16.8431C19.139 15.5121 19.7504 13.9688 19.9689 12.3476C19.9757 12.2969 19.9722 12.2453 19.9589 12.1959C19.9455 12.1466 19.9224 12.1003 19.891 12.06C19.8596 12.0196 19.8205 11.9859 19.7759 11.9607C19.7314 11.9356 19.6823 11.9196 19.6314 11.9137C19.0052 11.8281 18.3737 11.7862 17.7416 11.7883C16.4555 11.7867 15.1748 11.9553 13.9329 12.2897ZM12.0334 11.2869C11.7279 10.3732 11.3271 9.49419 10.8378 8.66427C8.6587 9.70781 6.27293 10.2482 3.85687 10.2456C2.72576 10.245 1.59785 10.1254 0.491751 9.88883C0.438172 9.87771 0.382842 9.87812 0.329435 9.89004C0.276028 9.90195 0.225767 9.92509 0.181992 9.95792C0.138216 9.99075 0.101928 10.0325 0.0755373 10.0805C0.0491468 10.1284 0.0332581 10.1814 0.028927 10.2359C0.00964272 10.4931 6.35131e-07 10.7534 6.35131e-07 11.017C-0.000488695 12.3899 0.281777 13.7483 0.82921 15.0074C1.37664 16.2664 2.17751 17.3993 3.18191 18.3354C3.2233 18.3751 3.27324 18.4049 3.3279 18.4223C3.38257 18.4398 3.4405 18.4445 3.49727 18.4361C3.55404 18.4278 3.60814 18.4065 3.65543 18.374C3.70272 18.3415 3.74194 18.2986 3.77009 18.2486C5.65144 15.0548 8.56661 12.5988 12.0334 11.2869ZM4.985 19.2321C4.95927 19.2763 4.9426 19.3252 4.93595 19.3759C4.9293 19.4266 4.93281 19.4782 4.94627 19.5275C4.95973 19.5769 4.98287 19.6231 5.01435 19.6634C5.04583 19.7037 5.08502 19.7374 5.12963 19.7624C6.62398 20.6063 8.31168 21.0482 10.0278 21.0448C10.6131 21.0474 11.1973 20.9957 11.7731 20.8905C11.8397 20.8795 11.902 20.8502 11.9531 20.806C12.0041 20.7617 12.0419 20.7042 12.0623 20.6398C12.5625 19.1448 12.8165 17.5784 12.8144 16.002C12.8139 14.9154 12.6943 13.8323 12.4577 12.7718C9.29925 14.0039 6.66075 16.285 4.985 19.2321Z" fill="#111827"/>
</svg>
