<svg width="20" height="18" viewBox="0 0 20 18" fill="none" xmlns="http://www.w3.org/2000/svg">
<path fill-rule="evenodd" clip-rule="evenodd" d="M4.81199 2.15325C4.81199 3.19084 4.02196 4.03053 2.78648 4.03053C1.59914 4.03053 0.80911 3.19084 0.83356 2.15325C0.80911 1.06524 1.59912 0.25 2.81015 0.25C4.02194 0.25 4.78831 1.06524 4.81199 2.15325ZM0.932891 17.5993V5.51355H4.68897V17.5986H0.932891V17.5993Z" fill="#111827"/>
<path fill-rule="evenodd" clip-rule="evenodd" d="M7.69967 9.3703C7.69967 7.86283 7.65001 6.57768 7.60034 5.51489H10.8628L11.0363 7.1706H11.1104C11.6047 6.40425 12.8402 5.24365 14.8421 5.24365C17.313 5.24365 19.1666 6.8749 19.1666 10.4323V17.6007H15.4105V10.903C15.4105 9.34509 14.8673 8.28305 13.508 8.28305C12.4697 8.28305 11.8523 8.99973 11.6055 9.6912C11.5062 9.93876 11.4573 10.2841 11.4573 10.631V17.6007H7.70119V9.3703H7.69967Z" fill="#111827"/>
</svg>
