<svg width="19" height="18" viewBox="0 0 19 18" fill="none" xmlns="http://www.w3.org/2000/svg">
<path d="M9.5 3C9.08579 3 8.75 3.33579 8.75 3.75V10.8968L5.58624 7.72952C5.28056 7.4235 4.78495 7.4235 4.47926 7.72952C4.17358 8.03553 4.17358 8.53169 4.47926 8.83771L8.90717 13.2705C9.07003 13.4335 9.2868 13.5097 9.50003 13.499C9.71325 13.5097 9.93001 13.4335 10.0929 13.2705L14.5208 8.83771C14.8264 8.53169 14.8264 8.03553 14.5208 7.72951C14.2151 7.42349 13.7195 7.4235 13.4138 7.72951L10.25 10.8968V3.75C10.25 3.33579 9.91421 3 9.5 3Z" fill="#00C2FF"/>
<path d="M4.25 15.75C4.25 15.3358 4.58579 15 5 15H14C14.4142 15 14.75 15.3358 14.75 15.75C14.75 16.1642 14.4142 16.5 14 16.5H5C4.58579 16.5 4.25 16.1642 4.25 15.75Z" fill="#00C2FF"/>
</svg>
