<svg width="180" height="180" viewBox="0 0 180 180" fill="none" xmlns="http://www.w3.org/2000/svg">
<path d="M167.398 57.0836C170.393 55.8097 171.806 52.3382 170.339 49.4327C163.759 36.4019 154.093 25.139 142.147 16.6467C128.597 7.01379 112.643 1.32244 96.055 0.203915C79.4672 -0.914609 62.8938 2.58341 48.1729 10.31C33.452 18.0366 21.159 29.6898 12.6573 43.9771C4.15564 58.2644 -0.222426 74.6273 0.00869709 91.2512C0.23982 107.875 5.0711 124.11 13.9667 138.155C22.8623 152.201 35.4745 163.508 50.4045 170.822C63.5666 177.27 78.0764 180.393 92.6678 179.96C95.9213 179.864 98.2984 176.966 97.9892 173.726C97.6801 170.486 94.801 168.133 91.5467 168.197C79.1269 168.443 66.7965 165.727 55.5903 160.237C42.6157 153.88 31.6553 144.054 23.9247 131.848C16.1942 119.643 11.9957 105.534 11.7948 91.0873C11.594 76.6407 15.3986 62.4208 22.7869 50.0047C30.1751 37.5886 40.8581 27.4616 53.651 20.747C66.4439 14.0323 80.8467 10.9924 95.262 11.9645C109.677 12.9365 123.542 17.8825 135.317 26.2538C145.488 33.4841 153.757 43.0255 159.465 54.0584C160.961 56.9494 164.402 58.3575 167.398 57.0836Z" fill="#56CCF2"/>
</svg>
