<svg width="56" height="16" viewBox="0 0 56 16" fill="none" xmlns="http://www.w3.org/2000/svg">
<path d="M0.5 15.2443V0.698864H3.57528V12.7088H9.81108V15.2443H0.5Z" fill="#111827"/>
<path d="M24.6477 7.97159C24.6477 9.55777 24.3471 10.9072 23.7457 12.0199C23.1491 13.1326 22.3348 13.9825 21.3026 14.5696C20.2751 15.152 19.1198 15.4432 17.8366 15.4432C16.544 15.4432 15.384 15.1496 14.3565 14.5625C13.3291 13.9754 12.517 13.1255 11.9205 12.0128C11.3239 10.9001 11.0256 9.55303 11.0256 7.97159C11.0256 6.38542 11.3239 5.03599 11.9205 3.9233C12.517 2.81061 13.3291 1.96307 14.3565 1.38068C15.384 0.793561 16.544 0.5 17.8366 0.5C19.1198 0.5 20.2751 0.793561 21.3026 1.38068C22.3348 1.96307 23.1491 2.81061 23.7457 3.9233C24.3471 5.03599 24.6477 6.38542 24.6477 7.97159ZM21.5298 7.97159C21.5298 6.94413 21.3759 6.07765 21.0682 5.37216C20.7652 4.66667 20.3366 4.13163 19.7827 3.76705C19.2287 3.40246 18.58 3.22017 17.8366 3.22017C17.0933 3.22017 16.4446 3.40246 15.8906 3.76705C15.3366 4.13163 14.9058 4.66667 14.598 5.37216C14.295 6.07765 14.1435 6.94413 14.1435 7.97159C14.1435 8.99905 14.295 9.86553 14.598 10.571C14.9058 11.2765 15.3366 11.8116 15.8906 12.1761C16.4446 12.5407 17.0933 12.723 17.8366 12.723C18.58 12.723 19.2287 12.5407 19.7827 12.1761C20.3366 11.8116 20.7652 11.2765 21.0682 10.571C21.3759 9.86553 21.5298 8.99905 21.5298 7.97159Z" fill="#111827"/>
<path d="M36.5707 5.40057C36.4712 5.05492 36.3316 4.74953 36.1516 4.48438C35.9717 4.21449 35.7515 3.98722 35.4911 3.80256C35.2354 3.61316 34.9419 3.46875 34.6104 3.36932C34.2837 3.26989 33.9215 3.22017 33.5238 3.22017C32.7804 3.22017 32.127 3.40483 31.5636 3.77415C31.0049 4.14347 30.5692 4.68087 30.2567 5.38636C29.9442 6.08712 29.788 6.94413 29.788 7.95739C29.788 8.97064 29.9419 9.83239 30.2496 10.5426C30.5574 11.2528 30.993 11.795 31.5565 12.169C32.1199 12.5384 32.7852 12.723 33.5522 12.723C34.2482 12.723 34.8424 12.5999 35.3349 12.3537C35.832 12.1027 36.2108 11.75 36.4712 11.2955C36.7364 10.8409 36.869 10.3035 36.869 9.68324L37.494 9.77557H33.744V7.46023H39.8306V9.29261C39.8306 10.571 39.5607 11.6695 39.021 12.5881C38.4812 13.5019 37.7378 14.2074 36.7908 14.7045C35.8439 15.197 34.7596 15.4432 33.538 15.4432C32.1744 15.4432 30.9764 15.1425 29.9442 14.5412C28.912 13.9351 28.1071 13.0758 27.5295 11.9631C26.9566 10.8456 26.6701 9.51989 26.6701 7.9858C26.6701 6.80682 26.8406 5.75568 27.1815 4.83239C27.5271 3.90436 28.0101 3.11837 28.6303 2.47443C29.2506 1.83049 29.9727 1.34044 30.7965 1.00426C31.6204 0.668087 32.5129 0.5 33.4741 0.5C34.2979 0.5 35.065 0.620739 35.7752 0.862216C36.4854 1.09896 37.1152 1.43513 37.6644 1.87074C38.2184 2.30634 38.6706 2.82481 39.021 3.42614C39.3713 4.02273 39.5962 4.68087 39.6957 5.40057H36.5707Z" fill="#111827"/>
<path d="M55.5071 7.97159C55.5071 9.55777 55.2064 10.9072 54.6051 12.0199C54.0085 13.1326 53.1941 13.9825 52.1619 14.5696C51.1345 15.152 49.9792 15.4432 48.696 15.4432C47.4034 15.4432 46.2434 15.1496 45.2159 14.5625C44.1884 13.9754 43.3764 13.1255 42.7798 12.0128C42.1832 10.9001 41.8849 9.55303 41.8849 7.97159C41.8849 6.38542 42.1832 5.03599 42.7798 3.9233C43.3764 2.81061 44.1884 1.96307 45.2159 1.38068C46.2434 0.793561 47.4034 0.5 48.696 0.5C49.9792 0.5 51.1345 0.793561 52.1619 1.38068C53.1941 1.96307 54.0085 2.81061 54.6051 3.9233C55.2064 5.03599 55.5071 6.38542 55.5071 7.97159ZM52.3892 7.97159C52.3892 6.94413 52.2353 6.07765 51.9276 5.37216C51.6245 4.66667 51.196 4.13163 50.642 3.76705C50.0881 3.40246 49.4394 3.22017 48.696 3.22017C47.9527 3.22017 47.304 3.40246 46.75 3.76705C46.196 4.13163 45.7652 4.66667 45.4574 5.37216C45.1544 6.07765 45.0028 6.94413 45.0028 7.97159C45.0028 8.99905 45.1544 9.86553 45.4574 10.571C45.7652 11.2765 46.196 11.8116 46.75 12.1761C47.304 12.5407 47.9527 12.723 48.696 12.723C49.4394 12.723 50.0881 12.5407 50.642 12.1761C51.196 11.8116 51.6245 11.2765 51.9276 10.571C52.2353 9.86553 52.3892 8.99905 52.3892 7.97159Z" fill="#111827"/>
</svg>
