<svg width="42" height="39" viewBox="0 0 42 39" fill="none" xmlns="http://www.w3.org/2000/svg">
<path d="M39.0216 1L23.3955 12.5622L26.3013 5.74821L39.0216 1Z" fill="#E17726" stroke="#E17726" stroke-width="0.25" stroke-linecap="round" stroke-linejoin="round"/>
<path d="M2.97852 1L18.4654 12.6701L15.6988 5.74819L2.97852 1Z" fill="#E27625" stroke="#E27625" stroke-width="0.25" stroke-linecap="round" stroke-linejoin="round"/>
<path d="M33.3959 27.8086L29.2383 34.1601L38.1409 36.6113L40.6912 27.9474L33.3959 27.8086Z" fill="#E27625" stroke="#E27625" stroke-width="0.25" stroke-linecap="round" stroke-linejoin="round"/>
<path d="M1.32422 27.9474L3.85899 36.6113L12.7462 34.1601L8.60399 27.8086L1.32422 27.9474Z" fill="#E27625" stroke="#E27625" stroke-width="0.25" stroke-linecap="round" stroke-linejoin="round"/>
<path d="M12.2669 17.0799L9.79395 20.8106L18.6038 21.2114L18.3102 11.7305L12.2669 17.0799Z" fill="#E27625" stroke="#E27625" stroke-width="0.25" stroke-linecap="round" stroke-linejoin="round"/>
<path d="M29.7324 17.0784L23.5965 11.6211L23.3955 21.21L32.2054 20.8092L29.7324 17.0784Z" fill="#E27625" stroke="#E27625" stroke-width="0.25" stroke-linecap="round" stroke-linejoin="round"/>
<path d="M12.7461 34.1608L18.0784 31.5863L13.488 28.0098L12.7461 34.1608Z" fill="#E27625" stroke="#E27625" stroke-width="0.25" stroke-linecap="round" stroke-linejoin="round"/>
<path d="M23.9209 31.5863L29.2377 34.1608L28.5112 28.0098L23.9209 31.5863Z" fill="#E27625" stroke="#E27625" stroke-width="0.25" stroke-linecap="round" stroke-linejoin="round"/>
<path d="M29.2377 34.1604L23.9209 31.5859L24.3536 35.0391L24.3072 36.5037L29.2377 34.1604Z" fill="#D5BFB2" stroke="#D5BFB2" stroke-width="0.25" stroke-linecap="round" stroke-linejoin="round"/>
<path d="M12.7461 34.1604L17.692 36.5037L17.6611 35.0391L18.0784 31.5859L12.7461 34.1604Z" fill="#D5BFB2" stroke="#D5BFB2" stroke-width="0.25" stroke-linecap="round" stroke-linejoin="round"/>
<path d="M17.7847 25.7267L13.3643 24.4318L16.4864 22.998L17.7847 25.7267Z" fill="#233447" stroke="#233447" stroke-width="0.25" stroke-linecap="round" stroke-linejoin="round"/>
<path d="M24.2148 25.7267L25.5132 22.998L28.6508 24.4318L24.2148 25.7267Z" fill="#233447" stroke="#233447" stroke-width="0.25" stroke-linecap="round" stroke-linejoin="round"/>
<path d="M12.7467 34.1601L13.5195 27.8086L8.60449 27.9474L12.7467 34.1601Z" fill="#CC6228" stroke="#CC6228" stroke-width="0.25" stroke-linecap="round" stroke-linejoin="round"/>
<path d="M28.4805 27.8086L29.2379 34.1601L33.3955 27.9474L28.4805 27.8086Z" fill="#CC6228" stroke="#CC6228" stroke-width="0.25" stroke-linecap="round" stroke-linejoin="round"/>
<path d="M32.2054 20.8105L23.3955 21.2114L24.2146 25.7284L25.513 22.9997L28.6506 24.4334L32.2054 20.8105Z" fill="#CC6228" stroke="#CC6228" stroke-width="0.25" stroke-linecap="round" stroke-linejoin="round"/>
<path d="M13.3643 24.4334L16.4864 22.9997L17.7847 25.7284L18.6038 21.2114L9.79395 20.8105L13.3643 24.4334Z" fill="#CC6228" stroke="#CC6228" stroke-width="0.25" stroke-linecap="round" stroke-linejoin="round"/>
<path d="M9.79492 20.8105L13.4889 28.01L13.3652 24.4334L9.79492 20.8105Z" fill="#E27525" stroke="#E27525" stroke-width="0.25" stroke-linecap="round" stroke-linejoin="round"/>
<path d="M28.6508 24.4334L28.5117 28.01L32.2057 20.8105L28.6508 24.4334Z" fill="#E27525" stroke="#E27525" stroke-width="0.25" stroke-linecap="round" stroke-linejoin="round"/>
<path d="M18.6044 21.2109L17.7852 25.728L18.8207 31.0619L19.0526 24.0322L18.6044 21.2109Z" fill="#E27525" stroke="#E27525" stroke-width="0.25" stroke-linecap="round" stroke-linejoin="round"/>
<path d="M23.3957 21.2109L22.9629 24.0168L23.1793 31.0619L24.2148 25.728L23.3957 21.2109Z" fill="#E27525" stroke="#E27525" stroke-width="0.25" stroke-linecap="round" stroke-linejoin="round"/>
<path d="M24.2152 25.7286L23.1797 31.0625L23.9216 31.5867L28.5121 28.0102L28.6511 24.4336L24.2152 25.7286Z" fill="#F5841F" stroke="#F5841F" stroke-width="0.25" stroke-linecap="round" stroke-linejoin="round"/>
<path d="M13.3643 24.4336L13.488 28.0102L18.0783 31.5867L18.8202 31.0625L17.7847 25.7286L13.3643 24.4336Z" fill="#F5841F" stroke="#F5841F" stroke-width="0.25" stroke-linecap="round" stroke-linejoin="round"/>
<path d="M24.3072 36.5035L24.3535 35.0389L23.9517 34.6997H18.0475L17.6611 35.0389L17.692 36.5035L12.7461 34.1602L14.4772 35.5784L17.9857 37.9988H23.998L27.522 35.5784L29.2376 34.1602L24.3072 36.5035Z" fill="#C0AC9D" stroke="#C0AC9D" stroke-width="0.25" stroke-linecap="round" stroke-linejoin="round"/>
<path d="M23.9208 31.5866L23.1789 31.0625H18.8203L18.0785 31.5866L17.6611 35.0399L18.0476 34.7007H23.9517L24.3536 35.0399L23.9208 31.5866Z" fill="#161616" stroke="#161616" stroke-width="0.25" stroke-linecap="round" stroke-linejoin="round"/>
<path d="M39.6859 13.3175L40.9997 6.93525L39.0213 1L23.9209 12.1768L29.7323 17.0791L37.9394 19.4687L39.7478 17.3567L38.9596 16.7862L40.2114 15.6455L39.2532 14.9055L40.5052 13.9496L39.6859 13.3175Z" fill="#763E1A" stroke="#763E1A" stroke-width="0.25" stroke-linecap="round" stroke-linejoin="round"/>
<path d="M1 6.93525L2.32922 13.3175L1.47914 13.9496L2.74653 14.9055L1.78826 15.6455L3.04019 16.7862L2.25193 17.3567L4.06029 19.4687L12.2675 17.0791L18.0788 12.1768L2.97837 1L1 6.93525Z" fill="#763E1A" stroke="#763E1A" stroke-width="0.25" stroke-linecap="round" stroke-linejoin="round"/>
<path d="M37.9399 19.4695L29.7327 17.0801L32.2057 20.8108L28.5117 28.0101L33.3958 27.9485H40.691L37.9399 19.4695Z" fill="#F5841F" stroke="#F5841F" stroke-width="0.25" stroke-linecap="round" stroke-linejoin="round"/>
<path d="M12.267 17.0801L4.05992 19.4695L1.32422 27.9485H8.60398L13.488 28.0101L9.7941 20.8108L12.267 17.0801Z" fill="#F5841F" stroke="#F5841F" stroke-width="0.25" stroke-linecap="round" stroke-linejoin="round"/>
<path d="M23.3953 21.2105L23.9208 12.1766L26.301 5.74805H15.6982L18.0784 12.1766L18.6039 21.2105L18.8049 24.0471L18.8203 31.0615H23.1789L23.1944 24.0471L23.3953 21.2105Z" fill="#F5841F" stroke="#F5841F" stroke-width="0.25" stroke-linecap="round" stroke-linejoin="round"/>
</svg>
