<svg width="36" height="36" viewBox="0 0 36 36" fill="none" xmlns="http://www.w3.org/2000/svg">
<rect width="36" height="36" rx="18" fill="#E5E7EB"/>
<path d="M25.001 25.9502V24.0502C25.001 23.0424 24.6006 22.0759 23.888 21.3632C23.1753 20.6506 22.2088 20.2502 21.201 20.2502H13.601C12.5931 20.2502 11.6266 20.6506 10.914 21.3632C10.2013 22.0759 9.80096 23.0424 9.80096 24.0502V25.9502" stroke="#111827" stroke-width="2.4" stroke-linecap="round" stroke-linejoin="round"/>
<path d="M17.401 16.4503C19.4996 16.4503 21.201 14.7489 21.201 12.6503C21.201 10.5516 19.4996 8.85025 17.401 8.85025C15.3023 8.85025 13.601 10.5516 13.601 12.6503C13.601 14.7489 15.3023 16.4503 17.401 16.4503Z" stroke="#111827" stroke-width="2.4" stroke-linecap="round" stroke-linejoin="round"/>
</svg>
